<svg width="27" height="19" viewBox="0 0 27 19" fill="none" xmlns="http://www.w3.org/2000/svg">
<g id="Lozenge">
<path id="Vector" d="M26.7311 4.10002C26.7311 4.10002 26.4674 2.2385 25.6553 1.42112C24.627 0.345337 23.4773 0.340063 22.95 0.276782C19.1742 0.00256333 13.5053 0.00256348 13.5053 0.00256348H13.4947C13.4947 0.00256348 7.82578 0.00256333 4.05 0.276782C3.52266 0.340063 2.37305 0.345337 1.34473 1.42112C0.532617 2.2385 0.274219 4.10002 0.274219 4.10002C0.274219 4.10002 0 6.2885 0 8.4717V10.5178C0 12.701 0.268945 14.8895 0.268945 14.8895C0.268945 14.8895 0.532617 16.751 1.33945 17.5684C2.36777 18.6442 3.71777 18.6073 4.31895 18.7233C6.48105 18.9289 13.5 18.9922 13.5 18.9922C13.5 18.9922 19.1742 18.9817 22.95 18.7127C23.4773 18.6494 24.627 18.6442 25.6553 17.5684C26.4674 16.751 26.7311 14.8895 26.7311 14.8895C26.7311 14.8895 27 12.7063 27 10.5178V8.4717C27 6.2885 26.7311 4.10002 26.7311 4.10002ZM10.7104 13.0016V5.41311L18.0035 9.22053L10.7104 13.0016Z" fill="#0476DA"/>
</g>
</svg>
