<svg width="27" height="27" viewBox="0 0 27 27" fill="none" xmlns="http://www.w3.org/2000/svg">
<g id="Social icon">
<path id="Vector" d="M8.49393 24.4688C18.6801 24.4688 24.2531 16.0276 24.2531 8.70968C24.2531 8.47238 24.2478 8.2298 24.2372 7.9925C25.3214 7.20849 26.2569 6.23738 27 5.1248C25.9903 5.57402 24.9183 5.8674 23.8206 5.99492C24.9764 5.30211 25.8418 4.21375 26.2564 2.93158C25.1691 3.57597 23.98 4.03053 22.7401 4.27578C21.9047 3.3881 20.8001 2.80035 19.5971 2.6034C18.3942 2.40645 17.1598 2.61127 16.085 3.1862C15.0101 3.76113 14.1545 4.67414 13.6506 5.78407C13.1466 6.894 13.0224 8.13903 13.297 9.32668C11.0953 9.21619 8.94143 8.64426 6.97498 7.64795C5.00853 6.65165 3.2734 5.25321 1.88209 3.5433C1.17495 4.76249 0.958564 6.20519 1.27691 7.57819C1.59526 8.9512 2.42445 10.1515 3.59596 10.9351C2.71646 10.9072 1.85622 10.6704 1.08633 10.2443V10.3128C1.08554 11.5923 1.52786 12.8325 2.3381 13.8227C3.14834 14.8129 4.27649 15.492 5.53078 15.7445C4.71606 15.9674 3.86098 15.9998 3.0317 15.8394C3.38564 16.9397 4.07427 17.9021 5.00149 18.5922C5.92871 19.2823 7.04826 19.6658 8.20389 19.689C6.24198 21.2301 3.81845 22.066 1.32363 22.062C0.881198 22.0614 0.439199 22.0342 0 21.9808C2.53446 23.6068 5.48272 24.4704 8.49393 24.4688Z" fill="#0476DA"/>
</g>
</svg>
